<?xml version="1.0" standalone="no"?>
<!DOCTYPE svg PUBLIC "-//W3C//DTD SVG 20010904//EN"
 "http://www.w3.org/TR/2001/REC-SVG-20010904/DTD/svg10.dtd">
<svg version="1.0" xmlns="http://www.w3.org/2000/svg"
 width="1562.000000pt" height="248.000000pt" viewBox="0 0 1562.000000 248.000000"
 preserveAspectRatio="xMidYMid meet">

<g transform="translate(0.000000,248.000000) scale(0.100000,-0.100000)"
fill="#000000" stroke="none">
<path d="M6185 1954 c-234 -57 -413 -251 -465 -506 -67 -324 39 -651 261 -807
104 -73 178 -96 314 -96 96 0 116 3 153 23 56 30 115 91 145 152 l25 50 12
-88 c6 -48 13 -93 15 -99 3 -10 40 -13 140 -13 l135 0 0 365 0 365 -295 0
-295 0 0 -100 0 -99 138 -3 137 -3 -3 -40 c-5 -52 -47 -129 -88 -160 -74 -56
-201 -72 -279 -36 -163 76 -234 388 -142 629 31 83 114 165 185 181 112 27
222 -30 273 -142 15 -34 22 -34 209 2 l145 27 -2 28 c-4 50 -75 177 -133 237
-100 102 -235 150 -419 148 -58 0 -133 -7 -166 -15z"/>
<path d="M12950 1955 c-111 -25 -218 -85 -292 -164 -74 -78 -118 -158 -150
-276 -18 -68 -21 -107 -21 -255 0 -204 15 -278 83 -410 80 -152 224 -259 400
-296 112 -24 289 -15 397 20 201 65 337 223 390 451 25 112 25 359 0 468 -37
157 -129 297 -248 376 -98 66 -199 93 -359 97 -94 3 -155 -1 -200 -11z m269
-291 c99 -29 183 -134 210 -262 14 -66 14 -212 1 -282 -26 -135 -110 -244
-213 -275 -178 -53 -333 52 -382 256 -19 83 -19 238 0 314 53 203 206 302 384
249z"/>
<path d="M805 1928 c-3 -7 -104 -310 -226 -673 -122 -363 -224 -666 -226 -672
-4 -10 34 -13 169 -13 l174 0 37 120 37 120 238 0 237 0 36 -117 36 -118 172
-3 c94 -1 171 0 171 4 0 3 -92 297 -205 652 -113 356 -211 662 -216 680 l-11
32 -209 0 c-159 0 -211 -3 -214 -12z m285 -618 c40 -129 75 -241 78 -247 3
-10 -31 -13 -152 -13 -115 0 -156 3 -156 12 0 7 30 105 66 218 36 113 70 220
76 238 5 18 11 32 13 30 2 -2 36 -109 75 -238z"/>
<path d="M1870 1255 l0 -685 165 0 165 0 0 685 0 685 -165 0 -165 0 0 -685z"/>
<path d="M2550 1255 l0 -685 160 0 160 0 0 452 c0 248 3 448 7 445 4 -4 77
-177 163 -385 l156 -377 109 0 108 0 151 363 151 363 3 -431 2 -430 165 0 165
0 0 685 0 685 -227 0 -228 -1 -140 -340 c-77 -187 -143 -342 -146 -344 -4 -3
-71 151 -149 340 l-143 345 -234 0 -233 0 0 -685z"/>
<path d="M4715 1923 c-3 -10 -106 -313 -227 -673 -121 -360 -223 -661 -225
-667 -4 -10 34 -13 169 -13 l175 0 37 120 37 120 238 0 237 0 36 -117 35 -118
172 -3 c94 -1 171 0 171 4 0 3 -92 297 -205 652 -113 356 -211 662 -216 680
l-11 32 -208 0 c-189 0 -208 -2 -215 -17z m285 -613 c40 -129 75 -241 78 -247
3 -10 -31 -13 -152 -13 -110 0 -156 3 -156 11 0 7 34 117 75 246 41 128 75
236 75 240 0 19 15 -24 80 -237z"/>
<path d="M7240 1255 l0 -685 165 0 165 0 0 685 0 685 -165 0 -165 0 0 -685z"/>
<path d="M7910 1255 l0 -685 160 0 160 0 2 413 3 412 275 -412 275 -412 158
-1 157 0 0 685 0 685 -160 0 -160 0 -2 -397 -3 -397 -262 397 -262 397 -171 0
-170 0 0 -685z"/>
<path d="M9547 1263 c-125 -373 -227 -681 -227 -686 0 -4 77 -6 171 -5 l172 3
35 118 36 117 237 0 238 0 37 -120 37 -120 172 0 173 0 -34 108 c-19 59 -116
366 -217 682 l-183 575 -210 3 -209 2 -228 -677z m511 39 c40 -130 72 -240 72
-244 0 -5 -70 -8 -156 -8 l-155 0 6 23 c38 128 150 467 155 467 3 0 38 -107
78 -238z"/>
<path d="M10580 1800 l0 -140 200 0 200 0 0 -545 0 -545 165 0 165 0 0 545 0
545 200 0 200 0 0 140 0 140 -565 0 -565 0 0 -140z"/>
<path d="M11890 1255 l0 -685 165 0 165 0 0 685 0 685 -165 0 -165 0 0 -685z"/>
<path d="M14030 1255 l0 -685 165 0 165 0 2 413 3 412 275 -412 275 -412 158
-1 157 0 0 685 0 685 -165 0 -165 0 -2 -390 -3 -389 -259 389 -259 390 -173 0
-174 0 0 -685z"/>
</g>
</svg>
